<?xml version="1.0" encoding="UTF-8" standalone="no"?>
<!DOCTYPE svg PUBLIC "-//W3C//DTD SVG 1.1//EN" "http://www.w3.org/Graphics/SVG/1.1/DTD/svg11.dtd">
<svg width="100%" height="100%" viewBox="0 0 661 665" version="1.1" xmlns="http://www.w3.org/2000/svg" xmlns:xlink="http://www.w3.org/1999/xlink" xml:space="preserve" xmlns:serif="http://www.serif.com/" style="fill-rule:evenodd;clip-rule:evenodd;stroke-linejoin:round;stroke-miterlimit:2;">
    <g id="Artboard1" transform="matrix(1.00287,0,0,0.992812,-231.031,-178.817)">
        <rect x="230.369" y="180.112" width="658.427" height="669.184" style="fill:none;"/>
        <g transform="matrix(1.62675,0,0,1.64324,-334.646,258.149)">
            <path d="M368.909,7.463C362.909,7.463 358.128,5.682 354.565,2.12C351.003,-1.443 349.222,-6.224 349.222,-12.224L349.222,-26.849C349.222,-33.224 351.003,-38.099 354.565,-41.474C358.128,-44.849 362.909,-46.537 368.909,-46.537L470.159,-46.537C496.409,-46.537 519.753,-42.037 540.19,-33.037C560.628,-24.037 576.472,-11.474 587.722,4.651C598.972,20.776 604.597,39.151 604.597,59.776C604.597,76.651 600.284,92.588 591.659,107.588C583.034,122.588 570.659,134.588 554.534,143.588C577.409,152.963 595.222,166.463 607.972,184.088C620.722,201.713 627.097,221.213 627.097,242.588C627.097,264.338 620.815,284.026 608.253,301.651C595.69,319.276 578.347,333.151 556.222,343.276C534.097,353.401 509.159,358.463 481.409,358.463L404.347,358.463C398.347,358.463 393.565,356.682 390.003,353.12C386.44,349.557 384.659,344.776 384.659,338.776L384.659,7.463L368.909,7.463ZM470.159,120.526C494.534,120.526 514.128,115.463 528.94,105.338C543.753,95.213 551.159,81.901 551.159,65.401C551.159,48.151 543.753,34.182 528.94,23.495C514.128,12.807 494.534,7.463 470.159,7.463L443.722,7.463L443.722,120.526L470.159,120.526ZM481.409,303.901C508.409,303.901 530.44,297.901 547.503,285.901C564.565,273.901 573.097,258.526 573.097,239.776C573.097,221.026 564.565,205.557 547.503,193.37C530.44,181.182 508.409,175.088 481.409,175.088L443.722,175.088L443.722,303.901L481.409,303.901Z" style="fill:white;fill-rule:nonzero;"/>
        </g>
        <g transform="matrix(1.62675,0,0,1.64324,13.2113,257.134)">
            <path d="M522.472,279.713C531.847,279.713 536.534,284.401 536.534,293.776L536.534,344.401C536.534,353.776 531.847,358.463 522.472,358.463L466.222,358.463C456.847,358.463 452.159,353.776 452.159,344.401L452.159,293.776C452.159,284.401 456.847,279.713 466.222,279.713L522.472,279.713Z" style="fill:rgb(0,199,249);fill-rule:nonzero;"/>
        </g>
    </g>
</svg>
